<svg width="90" height="90" viewBox="0 0 90 90" fill="none" xmlns="http://www.w3.org/2000/svg">
<path d="M61.6319 39.1642C70.8721 39.1642 78.3895 31.6468 78.3895 22.4066C78.3895 13.1657 70.8721 5.64835 61.6319 5.64835C55.1617 5.64835 49.5367 9.33495 46.7455 14.7169C44.8139 13.6519 42.7732 12.8293 40.6583 12.2573C41.3058 11.077 41.6746 9.72359 41.6746 8.28506C41.6746 3.71681 37.9578 0 33.3895 0C28.8213 0 25.1044 3.71681 25.1044 8.28506C25.1044 9.72633 25.4752 11.0825 26.1248 12.2642C14.3406 15.4646 5.64835 26.2546 5.64835 39.0379V62.563C2.36893 63.6665 0 66.7708 0 70.4182C0 74.9865 3.71681 78.7033 8.28506 78.7033H19.7095C20.9454 85.1289 26.6082 90 33.3895 90C40.1708 90 45.8329 85.1289 47.0695 78.7033H58.494C63.0622 78.7033 66.779 74.9865 66.779 70.4182C66.779 66.7708 64.4101 63.6665 61.1307 62.563V39.156C61.2968 39.1608 61.4637 39.1642 61.6319 39.1642V39.1642ZM61.6319 10.9218C67.9642 10.9218 73.1161 16.0737 73.1161 22.4066C73.1161 28.7389 67.9642 33.8908 61.6319 33.8908C55.299 33.8908 50.1471 28.7389 50.1471 22.4066C50.1471 16.0737 55.299 10.9218 61.6319 10.9218V10.9218ZM33.3895 5.27344C35.0498 5.27344 36.4011 6.62476 36.4011 8.28506C36.4011 9.94606 35.0505 11.2967 33.3895 11.2967C31.7285 11.2967 30.3779 9.94606 30.3779 8.28506C30.3779 6.62476 31.7292 5.27344 33.3895 5.27344ZM33.3895 84.7266C29.5333 84.7266 26.2573 82.1928 25.1395 78.7033H41.6396C40.5217 82.1928 37.2457 84.7266 33.3895 84.7266ZM55.8572 39.0379V64.7699C55.8572 66.2256 57.0376 67.4066 58.494 67.4066C60.1543 67.4066 61.5056 68.7572 61.5056 70.4182C61.5056 72.0786 60.155 73.4299 58.494 73.4299H8.28506C6.62407 73.4299 5.27344 72.0792 5.27344 70.4182C5.27344 68.7572 6.62407 67.4066 8.28506 67.4066C9.74144 67.4066 10.9218 66.2256 10.9218 64.7699V39.0379C10.9218 26.6494 21.0011 16.5701 33.3895 16.5701C37.5547 16.5701 41.5585 17.6969 45.07 19.842C44.9409 20.6783 44.8737 21.5346 44.8737 22.4066C44.8737 29.6102 49.444 35.7674 55.8366 38.1308C55.849 38.4336 55.8572 38.7357 55.8572 39.0379V39.0379Z" fill="#FCF6F5"/>
</svg>
