<svg width="90" height="90" viewBox="0 0 90 90" fill="none" xmlns="http://www.w3.org/2000/svg">
<g clip-path="url(#clip0)">
<path d="M87.7497 39.1457C87.747 39.1436 87.7449 39.1409 87.7428 39.1388L51.03 2.42729C49.4651 0.86174 47.3846 0 45.1715 0C42.9585 0 40.8779 0.86174 39.3124 2.42729L2.61871 39.1203C2.60635 39.1326 2.59331 39.1457 2.58164 39.158C-0.631866 42.3901 -0.626372 47.634 2.59743 50.8578C4.07028 52.3313 6.01486 53.1841 8.09471 53.2741C8.17986 53.2823 8.265 53.2864 8.35083 53.2864H9.81339V80.3032C9.81339 85.6501 14.164 90 19.5109 90H33.8741C35.3305 90 36.5108 88.819 36.5108 87.3633V66.1816C36.5108 63.742 38.4959 61.7576 40.9356 61.7576H49.4074C51.8471 61.7576 53.8315 63.742 53.8315 66.1816V87.3633C53.8315 88.819 55.0118 90 56.4682 90H70.8315C76.179 90 80.5289 85.6501 80.5289 80.3032V53.2864H81.8858C84.0981 53.2864 86.1787 52.4247 87.7449 50.8585C90.9721 47.6299 90.9735 42.3763 87.7497 39.1457V39.1457ZM84.0157 47.13C83.4465 47.6992 82.6898 48.013 81.8858 48.013H77.8922C76.4359 48.013 75.2555 49.1933 75.2555 50.6497V80.3032C75.2555 82.7422 73.2711 84.7266 70.8315 84.7266H59.1049V66.1816C59.1049 60.8347 54.755 56.4841 49.4074 56.4841H40.9356C35.588 56.4841 31.2374 60.8347 31.2374 66.1816V84.7266H19.5109C17.0719 84.7266 15.0868 82.7422 15.0868 80.3032V50.6497C15.0868 49.1933 13.9065 48.013 12.4501 48.013H8.52524C8.48404 48.0103 8.44353 48.0082 8.40164 48.0075C7.61612 47.9938 6.87935 47.682 6.32729 47.1293C5.15312 45.9551 5.15312 44.0442 6.32729 42.8693C6.32797 42.8693 6.32797 42.8687 6.32866 42.868L6.33072 42.8659L43.0422 6.15578C43.6108 5.58655 44.3668 5.27344 45.1715 5.27344C45.9756 5.27344 46.7316 5.58655 47.3008 6.15578L84.0041 42.8584C84.0096 42.8638 84.0157 42.8693 84.0212 42.8748C85.1892 44.0511 85.1871 45.9579 84.0157 47.13V47.13Z" fill="#FCF6F5"/>
</g>
<defs>
<clipPath id="clip0">
<rect width="90" height="90" fill="white"/>
</clipPath>
</defs>
</svg>
