<svg width="140" height="140" viewBox="0 0 140 140" fill="none" xmlns="http://www.w3.org/2000/svg">
<g clip-path="url(#clip0)">
<path d="M129.633 34.7977L120.014 45.3739C119.185 46.2842 117.961 46.801 116.653 46.7029C113.02 46.4125 113.774 43.2783 105.47 34.7047C102.009 31.1139 97.9261 27.9721 93.3428 25.5175C91.4233 24.4839 90.644 22.1296 91.5737 20.1554L95.4373 11.947C100.917 0.30844 115.331 -3.48195 125.805 3.50903C136.377 10.5779 138.19 25.3985 129.633 34.7977V34.7977Z" fill="#5A7983"/>
<path d="M46.6397 25.5174C38.237 30.0174 31.75 36.7259 26.4354 44.8571C24.9586 47.1217 21.7525 47.3394 19.9686 45.3739L10.3491 34.7976C1.78722 25.3928 3.61242 10.5719 14.1745 3.51175C18.7983 0.424637 24.3354 -0.677316 29.7741 0.405496C36.3202 1.70706 41.7042 5.91225 44.5452 11.9443L48.4089 20.1553C49.3385 22.1296 48.5592 24.4839 46.6397 25.5174V25.5174Z" fill="#81A1B1"/>
<path d="M74.0928 139.891C52.7259 140.728 25.5921 136.227 12.3397 119.288C3.5897 108.104 1.37759 92.8607 5.76353 73.9856C10.4896 53.6301 20.6858 32.8316 37.8022 21.2847C60.2432 6.0911 91.5231 8.45715 111.368 29.0008C122.201 40.2032 129.89 55.3402 134.219 73.9856C144.229 117.066 119.367 138.118 74.0928 139.891Z" fill="#FCF6F5"/>
<path d="M70.0514 140V11.4713C85.2081 11.4833 100.18 17.4188 111.368 29.0008C122.201 40.2033 129.89 55.3402 134.219 73.9857C144.776 119.417 116.484 139.35 70.0514 140Z" fill="#D8C5C5"/>
<path d="M56.1909 53.8612C47.8893 49.5682 37.567 52.4475 32.6862 60.4179L24.7264 73.4196C19.2937 82.2979 22.5627 93.9113 31.7729 98.6765L33.717 99.6828C42.9671 104.466 54.3137 100.365 58.403 90.8428L64.4186 76.8321C68.1045 68.2437 64.4897 58.1541 56.1909 53.8612ZM45.576 74.3767C43.5635 73.3376 42.776 70.863 43.8178 68.8508C44.8596 66.8383 47.3342 66.0508 49.344 67.0926C51.3565 68.1316 52.144 70.6062 51.1022 72.6187C50.0631 74.631 47.5885 75.4185 45.576 74.3767V74.3767Z" fill="#81A1B1"/>
<path d="M51.1022 72.6184C50.0631 74.6309 47.5885 75.4184 45.576 74.3766C43.5635 73.3375 42.776 70.8629 43.8178 68.8507C44.8596 66.8382 47.3342 66.0507 49.344 67.0925C51.3565 68.1316 52.144 70.6062 51.1022 72.6184Z" fill="#525E63"/>
<path d="M115.256 73.4196L107.296 60.4179C102.415 52.4475 92.0932 49.5682 83.7916 53.8612C75.4928 58.1541 71.8779 68.2437 75.5639 76.8321L81.5795 90.8428C84.3377 97.2659 90.7219 101.682 98.0268 101.682C102.88 101.682 105.881 99.8816 108.212 98.6765C117.42 93.9097 120.689 82.2976 115.256 73.4196V73.4196ZM94.4065 74.3767C92.394 75.4185 89.9194 74.631 88.8803 72.6185C87.8385 70.606 88.626 68.1313 90.6385 67.0923C92.6483 66.0505 95.1229 66.838 96.1647 68.8505C97.2065 70.8633 96.419 73.3376 94.4065 74.3767Z" fill="#5A7983"/>
<path d="M94.4065 74.3766C92.394 75.4184 89.9194 74.6309 88.8803 72.6184C87.8385 70.6059 88.626 68.1313 90.6385 67.0923C92.6483 66.0505 95.1229 66.838 96.1646 68.8505C97.2064 70.8632 96.4189 73.3376 94.4065 74.3766Z" fill="#414C51"/>
<path d="M83.6878 114.658C82.4083 118.53 78.697 123.42 74.0928 124.939V139.891C70.5089 140.031 69.4739 140.031 65.8897 139.891V124.931C61.2522 123.355 57.4798 118.454 56.2264 114.363C55.1108 110.732 56.5655 106.715 59.7619 104.599C65.8837 100.542 73.8459 100.487 80.0264 104.454C83.4444 106.65 84.951 110.847 83.6878 114.658V114.658Z" fill="#81A1B1"/>
<path d="M83.6878 114.658C82.4083 118.53 78.697 123.42 74.0928 124.939V139.891C72.7667 139.943 71.4186 139.981 70.0514 140V101.517C73.6006 101.526 77.0487 102.543 80.0264 104.454C83.4444 106.65 84.951 110.847 83.6878 114.658Z" fill="#5A7983"/>
</g>
<defs>
<clipPath id="clip0">
<rect width="140" height="140" fill="white"/>
</clipPath>
</defs>
</svg>
