<svg width="90" height="90" viewBox="0 0 90 90" fill="none" xmlns="http://www.w3.org/2000/svg">
<path d="M76.8198 13.1802C68.3205 4.68086 57.0197 0 45 0C32.9796 0 21.6795 4.68086 13.1802 13.1802C4.68086 21.6795 0 32.9796 0 45C0 57.0197 4.68086 68.3205 13.1802 76.8198C21.6795 85.3191 32.9796 90 45 90C57.0197 90 68.3205 85.3191 76.8198 76.8198C85.3191 68.3205 90 57.0197 90 45C90 32.9796 85.3191 21.6795 76.8198 13.1802V13.1802ZM22.5597 77.7633C24.4418 66.9267 33.8324 58.9334 45 58.9334C56.1683 58.9334 65.5582 66.9267 67.4403 77.7633C61.051 82.153 53.3208 84.7266 45 84.7266C36.6792 84.7266 28.949 82.153 22.5597 77.7633ZM30.6917 39.3517C30.6917 31.4614 37.1104 25.0433 45 25.0433C52.8896 25.0433 59.3083 31.4621 59.3083 39.3517C59.3083 47.2412 52.8896 53.66 45 53.66C37.1104 53.66 30.6917 47.2412 30.6917 39.3517V39.3517ZM72.0078 74.1055C70.5885 69.0607 67.7699 64.4836 63.8189 60.9082C61.395 58.7144 58.6361 56.9833 55.6698 55.7632C61.0311 52.2661 64.5824 46.216 64.5824 39.3517C64.5824 28.5542 55.7975 19.7699 45 19.7699C34.2025 19.7699 25.4182 28.5542 25.4182 39.3517C25.4182 46.216 28.9696 52.2661 34.3302 55.7632C31.3646 56.9833 28.605 58.7137 26.1811 60.9075C22.2308 64.4829 19.4115 69.0601 17.9922 74.1048C10.1747 66.8449 5.27344 56.4848 5.27344 45C5.27344 23.0946 23.0946 5.27344 45 5.27344C66.9054 5.27344 84.7266 23.0946 84.7266 45C84.7266 56.4855 79.8253 66.8456 72.0078 74.1055V74.1055Z" fill="#FCF6F5"/>
</svg>
