<svg width="35" height="35" viewBox="0 0 35 35" fill="none" xmlns="http://www.w3.org/2000/svg">
<path d="M34.7863 32.7242L24.6191 22.5569C26.5475 20.1762 27.7083 17.1495 27.7083 13.8542C27.7083 6.21503 21.4933 0 13.8541 0C6.21496 0 0 6.21503 0 13.8542C0 21.4933 6.21503 27.7084 13.8542 27.7084C17.1495 27.7084 20.1762 26.5475 22.557 24.6191L32.7242 34.7864C33.009 35.0711 33.4706 35.0711 33.7555 34.7864L34.7864 33.7554C35.0711 33.4706 35.0711 33.0089 34.7863 32.7242ZM13.8542 24.7917C7.82291 24.7917 2.91669 19.8855 2.91669 13.8542C2.91669 7.82291 7.82291 2.91669 13.8542 2.91669C19.8855 2.91669 24.7917 7.82291 24.7917 13.8542C24.7917 19.8855 19.8855 24.7917 13.8542 24.7917Z" fill="#FCF6F5"/>
</svg>
