<svg width="90" height="90" viewBox="0 0 90 90" fill="none" xmlns="http://www.w3.org/2000/svg">
<g clip-path="url(#clip0)">
<path d="M89.7614 32.6966C89.0802 30.5989 87.0498 29.1577 84.192 28.7422L60.8988 25.3571L50.4817 4.25088C49.2038 1.66085 47.2057 0.175629 45.0002 0.175629C42.7946 0.175629 40.7965 1.66085 39.518 4.25088L29.1022 25.3571L5.80767 28.7422C2.94984 29.1577 0.919423 30.5989 0.238268 32.6966C-0.442887 34.7944 0.352252 37.1537 2.42044 39.169L19.2763 55.5984L15.2965 78.7982C14.7877 81.7652 15.6549 83.5436 16.472 84.5125C17.4312 85.6496 18.8286 86.2758 20.4079 86.2758C21.5971 86.2758 22.8613 85.9283 24.1659 85.2424L45.0002 74.289L65.8351 85.2424C67.1397 85.9283 68.4039 86.2758 69.5925 86.2765H69.5931C71.1724 86.2765 72.5704 85.6496 73.529 84.5125C74.3461 83.5436 75.2134 81.7652 74.7039 78.7982L70.7254 55.5984L87.5799 39.1697C89.6481 37.1537 90.4432 34.7944 89.7614 32.6966V32.6966ZM83.8994 35.3931L66.0521 52.79C65.4307 53.3957 65.1471 54.2691 65.294 55.1239L69.5066 79.6901C69.6295 80.4049 69.5767 80.8108 69.5279 81.0003C69.3398 80.9879 68.936 80.9151 68.2892 80.5752L46.2272 68.9764C45.8427 68.7745 45.4218 68.6736 45.0002 68.6736C44.5786 68.6736 44.157 68.7745 43.7731 68.9764L21.7125 80.5746C21.0657 80.9144 20.6612 80.9879 20.4731 81.0003C20.425 80.8108 20.3715 80.4049 20.4944 79.6901L24.7083 55.1246C24.8546 54.2691 24.571 53.3957 23.9496 52.7907L6.10155 35.3931C5.58245 34.8871 5.38675 34.5279 5.31397 34.346C5.47945 34.2416 5.84887 34.0658 6.56642 33.9615L31.2329 30.3772C32.0919 30.2522 32.8341 29.7125 33.218 28.9345L44.2476 6.5848C44.5689 5.93454 44.8498 5.63791 45.0008 5.51226C45.1512 5.63791 45.4327 5.93454 45.7534 6.5848L56.7837 28.9345C57.1682 29.7125 57.9105 30.2522 58.7695 30.3772L83.4339 33.9615C84.1521 34.0658 84.5209 34.2416 84.6863 34.346C84.6136 34.5273 84.4186 34.8871 83.8994 35.3931V35.3931Z" fill="#FCF6F5"/>
</g>
<defs>
<clipPath id="clip0">
<rect width="90" height="90" fill="white"/>
</clipPath>
</defs>
</svg>
